<?xml version="1.0" standalone="no"?>
<!DOCTYPE svg PUBLIC "-//W3C//DTD SVG 20010904//EN"
 "http://www.w3.org/TR/2001/REC-SVG-20010904/DTD/svg10.dtd">
<svg version="1.0" xmlns="http://www.w3.org/2000/svg"
 width="700.000000pt" height="700.000000pt" viewBox="0 0 700.000000 700.000000"
 preserveAspectRatio="xMidYMid meet">
<metadata>
Created by potrace 1.14, written by Peter Selinger 2001-2017
</metadata>
<g transform="translate(0.000000,700.000000) scale(0.100000,-0.100000)"
fill="#000000" stroke="none">
<path d="M1230 6989 c-533 -69 -972 -421 -1149 -922 -17 -49 -41 -134 -53
-190 l-23 -102 0 -2275 c0 -2192 1 -2278 19 -2365 120 -571 540 -991 1111
-1111 87 -18 173 -19 2365 -19 2188 0 2278 1 2365 19 567 118 978 525 1108
1096 l22 95 0 2285 0 2285 -22 95 c-128 565 -517 956 -1088 1093 l-90 21
-2250 2 c-1237 1 -2279 -2 -2315 -7z m118 -2131 c6 -24 92 -389 191 -813 175
-751 229 -1001 270 -1254 12 -68 22 -125 24 -127 1 -2 11 52 20 119 39 267
105 540 508 2080 l10 37 279 0 279 0 15 -52 c20 -70 357 -1370 395 -1523 31
-124 90 -434 112 -587 7 -48 14 -86 15 -85 1 1 12 61 24 132 43 261 85 455
276 1273 107 458 194 836 194 838 0 2 131 4 290 4 225 0 290 -3 290 -12 0 -7
-159 -636 -353 -1398 l-353 -1385 -339 0 -339 0 -108 420 c-288 1117 -315
1230 -394 1640 l-7 40 -9 -55 c-39 -257 -106 -537 -386 -1625 l-108 -420 -336
-3 c-314 -2 -337 -1 -342 15 -13 42 -706 2763 -706 2773 0 7 94 10 289 10
l289 0 10 -42z m4152 -393 l0 -225 300 0 300 0 0 -220 0 -220 -300 0 -300 0 0
-542 c0 -364 4 -556 11 -583 15 -54 82 -118 143 -135 68 -19 237 -8 361 24 55
14 101 26 102 26 2 0 2 -98 1 -217 l-3 -218 -80 -27 c-132 -45 -250 -61 -440
-61 -141 0 -183 4 -247 21 -217 59 -335 175 -399 392 -19 68 -22 108 -29 415
-5 187 -9 467 -9 623 l-1 282 -135 0 -136 0 3 127 3 126 156 95 156 95 83 224
83 223 189 0 188 0 0 -225z"/>
</g>
</svg>
