<?xml version="1.0" standalone="no"?>
<!DOCTYPE svg PUBLIC "-//W3C//DTD SVG 20010904//EN"
 "http://www.w3.org/TR/2001/REC-SVG-20010904/DTD/svg10.dtd">
<svg version="1.0" xmlns="http://www.w3.org/2000/svg"
 width="700.000000pt" height="700.000000pt" viewBox="0 0 700.000000 700.000000"
 preserveAspectRatio="xMidYMid meet">
<metadata>
Created by potrace 1.14, written by Peter Selinger 2001-2017
</metadata>
<g transform="translate(0.000000,700.000000) scale(0.100000,-0.100000)"
fill="#000000" stroke="none">
<path d="M1230 6989 c-533 -69 -972 -421 -1149 -922 -17 -49 -41 -134 -53
-190 l-23 -102 0 -2275 c0 -2192 1 -2278 19 -2365 120 -571 540 -991 1111
-1111 87 -18 173 -19 2365 -19 2188 0 2278 1 2365 19 567 118 978 525 1108
1096 l22 95 0 2285 0 2285 -22 95 c-128 565 -517 956 -1088 1093 l-90 21
-2250 2 c-1237 1 -2279 -2 -2315 -7z m752 -2754 c126 -539 194 -862 224 -1055
6 -41 10 -28 35 122 15 91 37 206 49 255 22 93 300 1170 326 1261 l15 52 214
0 214 0 15 -52 c8 -29 81 -307 162 -618 141 -547 182 -723 220 -955 17 -101
19 -107 25 -70 4 22 20 108 34 190 25 139 85 407 268 1190 l72 310 223 3 c167
2 222 -1 222 -10 0 -6 -122 -492 -272 -1080 l-271 -1068 -261 2 -261 3 -137
530 c-154 595 -197 772 -231 960 -22 117 -25 126 -31 90 -37 -210 -109 -521
-234 -1005 l-148 -575 -260 -3 -261 -2 -181 712 c-100 392 -224 878 -276 1081
l-94 367 226 -2 226 -3 148 -630z m3058 300 l0 -175 230 0 230 0 0 -170 0
-170 -230 0 -230 0 0 -412 c0 -252 4 -427 10 -450 30 -106 148 -140 345 -99
50 11 98 22 108 26 16 7 17 -5 17 -163 l0 -169 -67 -22 c-95 -30 -159 -40
-287 -47 -253 -13 -428 62 -506 216 -62 123 -63 131 -67 648 l-5 472 -104 0
-104 0 0 98 0 98 122 74 123 75 64 173 64 172 143 0 144 0 0 -175z"/>
</g>
</svg>
